<svg id="Layer_1" enable-background="new 0 0 496.06 496.06" height="512" viewBox="0 0 496.06 496.06" width="512" xmlns="http://www.w3.org/2000/svg"><path d="m407.934 311.82v52.24c0 72.766-58.949 132-132 132h-56c-72.9 0-132-59.1-132-132v-228c0-17.789 14.436-32 32-32 17.67 0 32 14.33 32 32 0-22.447 0-37.546 0-60 0-9.94 4.03-18.94 10.54-25.46 22.472-22.471 61.46-6.699 61.46 25.46 0-10.288 0-30.109 0-40 0-19.615 15.652-35.502 35.07-35.99 19.617-.634 36.93 15.282 36.93 35.99v16c0-19.898 16.118-36 36-36 19.88 0 36 16.12 36 36v180c14.022 14.022 40 35.67 40 79.76z" fill="#f9cfac"/><g fill="#ffe4cc"><path d="m327.244 167.37 40.69 40.69v-156c0-28.92-32.323-45.756-55.99-29.95-.016.501-.01 109.164-.01 110.16 0 12.201 4.721 24.51 15.31 35.1z"/><path d="m399.304 272.06c-9.504-20.926-15.315-23.945-88.06-96.69-6.236-6.235-16.318-6.271-22.58-.04-20.008 19.969-20.097 52.359-.17 72.45 27.428 27.853 22.6 22.951 27.3 27.72 8.065 8.169 12.13 19.309 12.13 28.66.164 5.244-3.085 8.377-6.93 8.89-54.834 7.304-97.06 54.592-97.06 111.01 0 4.42-3.58 8-8 8s-8-3.58-8-8c0-60.895 43.526-113.939 103.35-125.62-1.28-6.51-4.44-12.51-9.19-17.33-9.348-9.495-14.865-13.943-25-22.1-38.09-38.364-13.88-99.96 18.84-104.08v-118.87c0-28.878-32.417-45.869-56-29.94v265.94c-8.837 0-16-7.163-16-16v-180c0-28.86-32.236-45.769-55.97-29.96-.047 1.121-.03 53.228-.03 225.96-8.837 0-16-7.163-16-16v-120c0-24.781-26.921-39.928-48-27.71 0 261.487-.138 241.971.29 248.45 4.299 67.274 59.645 120.702 125.68 123.12.895.045 66.263.754 76.01-.6 10.445-.996 21.493-3.702 31.07-7.15 17.257-6.002 35.51-18.67 39.95-23.11 18.855-22.63 29.852-49.133 30.96-81.59 0-57.201 2.454-71.188-8.59-95.41z"/></g></svg>