<svg id="Line" enable-background="new 0 0 32 32" height="512" viewBox="0 0 32 32" width="512" xmlns="http://www.w3.org/2000/svg"><path id="XMLID_1714_" d="m24 9.184v-3.184c0-1.654-1.346-3-3-3-.537 0-1.034.153-1.471.401-.532-.839-1.464-1.401-2.529-1.401s-1.997.562-2.529 1.401c-.437-.248-.934-.401-1.471-.401-1.383 0-2.538.945-2.884 2.22-.346-.139-.721-.22-1.116-.22-1.654 0-3 1.346-3 3v4 6.446c0 .544.148 1.077.428 1.543l2.572 4.288v4.723c0 .553.447 1 1 1s1-.447 1-1v-5c0-.182-.049-.359-.143-.515l-2.714-4.525c-.094-.155-.143-.333-.143-.514v-3.631c.314.113.648.185 1 .185.771 0 1.468-.301 2-.78.532.48 1.229.78 2 .78.681 0 1.302-.236 1.806-.62.614.822 1.526 1.411 2.584 1.573-1.588 1.647-2.39 3.337-2.39 5.047 0 .553.447 1 1 1s1-.447 1-1c0-1.659 1.211-3.408 3.6-5.2.345-.258.485-.708.349-1.116-.137-.409-.518-.684-.949-.684h-2c-1.103 0-2-.897-2-2v-1h7c.552 0 1 .449 1 1v2 4.299c0 .227-.078.447-.22.624l-3.562 4.452c-.141.178-.218.397-.218.625v5c0 .553.447 1 1 1s1-.447 1-1v-4.649l3.342-4.178c.425-.529.658-1.194.658-1.874v-4.299-2c0-1.302-.839-2.402-2-2.816zm-14 2.816c0 .551-.448 1-1 1s-1-.449-1-1v-4c0-.551.448-1 1-1s1 .449 1 1zm4 0c0 .551-.448 1-1 1s-1-.449-1-1c0-8.294 0-2.408 0-6 0-.551.448-1 1-1s1 .449 1 1zm4-3h-2c0-1.418 0-2.539 0-4 0-.551.448-1 1-1s1 .449 1 1zm4 0h-2v-3c0-.551.448-1 1-1s1 .449 1 1z"/></svg>