<svg fill="none" height="512" viewBox="0 0 32 32" width="512" xmlns="http://www.w3.org/2000/svg"><path d="m11.4062 6.96877c-.8281-.01563-1.51558.15625-1.93745.28125-.01172 0-.01953 0-.03125 0l-2.5.78125c-2.93359.90234-4.9375 3.62113-4.9375 6.68753v5.2812c0 3.8555 3.14453 7 7 7h9.9062c1.2188.0274 2.3985-.6875 2.875-1.875.3008-.7539.2579-1.5469-.0312-2.25.6133-.3242 1.1328-.8476 1.4062-1.5312.3126-.7852.2618-1.6211-.0624-2.3438h3.9062c1.6445 0 3-1.3555 3-3s-1.3555-3-3-3h-1.5312l.4062-.125c1.5742-.4765 2.4766-2.1758 2-3.74998-.4766-1.57422-2.1758-2.47656-3.75-2l-8.4375 2.59375c-.0742-.1875-.1602-.39063-.2813-.59375-.5-.83594-1.5117-1.78125-3.125-2.0625-.3007-.05078-.5976-.08985-.875-.09375zm13.7188 2.03125c.3906.04297.7227.3125.8438.71875.164.53903-.1485 1.08593-.6876 1.25003l-6.8437 2.0625.3437 1.125v.8437h8.2188c.5664 0 1 .4336 1 1s-.4336 1-1 1h-6.5938l-2.625-1.0312c-.3789-.1524-.7695-.2266-1.1562-.2188l-.5312-4.0937 8.625-2.62503c.1367-.04297.2773-.04688.4062-.03125zm-13.75.03125c.1914 0 .3906 0 .5625.03125 1.0742.1875 1.4883.65625 1.75 1.09378.2617.4375.2813.75.2813.75v.0625l.8437 6.4375c.0078.0312.0195.0625.0313.0937.125.5274-.1915 1.0313-.7188 1.1563-.3242.0781-.4883.0351-.6562-.0625-.168-.0977-.375-.3047-.5313-.75l-1.25-4.8438c-.0781-.2969-.2891-.539-.5664-.6601-.2813-.1211-.6016-.1094-.8711.0351l-1.65625.9063c-.48437.2656-.66016.875-.39063 1.3593.26563.4844.875.6602 1.35938.3907l.5-.2813.9687 3.6875c.0079.0313.0196.0625.0313.0938.2695.7734.7305 1.3945 1.375 1.7812.5273.3164 1.1406.4375 1.75.375-.3164.293-.5781.668-.75 1.0938-.457 1.1445-.168 2.4023.6563 3.2187h-5.0938c-2.77344 0-5-2.2265-5-5v-5.2812c0-2.1993 1.42969-4.1328 3.53125-4.78128l2.49995-.75c.2032-.0625.7735-.15625 1.3438-.15625zm5.4375 8.75003c.0742.0117.1445 0 .2187.0312l3.7188 1.5c.5234.211.7734.7578.5625 1.2813-.2109.5234-.7891.7734-1.3125.5625l-3.7188-1.4688c-.0546-.0195-.0781-.0664-.125-.0937.3946-.5078.6485-1.1485.6563-1.8125zm-.625 4.125c.1328 0 .2734.0117.4063.0625l1.3437.5312 1.3125.5313.125.0312c.5234.211.7734.7891.5625 1.3125-.1523.3828-.4922.6055-.875.625-.0117 0-.0195 0-.0313 0-.1328.0039-.2734-.0117-.4062-.0625l-2.7812-1.125c-.5235-.2109-.7735-.789-.5626-1.3125.1055-.2617.2969-.4297.5313-.5312.1172-.0508.2422-.0625.375-.0625z" fill="rgb(0,0,0)"/></svg>